<svg width="25" height="25" viewBox="0 0 25 25" fill="none" xmlns="http://www.w3.org/2000/svg">
<path d="M3.84001 17.5C6.60001 22.283 12.716 23.92 17.5 21.16C19.3755 20.0807 20.8484 18.42 21.696 16.429C22.3069 15.0013 22.5765 13.4508 22.4835 11.9007C22.3904 10.3506 21.9373 8.84346 21.16 7.49905C20.3843 6.15401 19.3057 5.0083 18.0099 4.15287C16.7141 3.29744 15.2367 2.75583 13.695 2.57105C11.5471 2.30958 9.37246 2.75468 7.50001 3.83905C2.71701 6.60105 1.07801 12.717 3.84001 17.5Z" stroke="#FBFCFC" stroke-width="1.5"/>
<path d="M17.45 21.073C17.45 21.073 16.51 14.482 14.5 11C12.49 7.518 7.55002 3.927 7.55002 3.927" stroke="#FBFCFC" stroke-width="1.5" stroke-linecap="round"/>
<path d="M22.364 13.0801C16.953 11.8931 9.559 16.8481 8.077 21.3181M16.914 3.70911C15.426 8.12911 8.174 13.0121 2.789 11.9521" stroke="#FBFCFC" stroke-width="1.5" stroke-linecap="round"/>
</svg>
