<svg width="25" height="25" viewBox="0 0 25 25" fill="none" xmlns="http://www.w3.org/2000/svg">
<path d="M19.571 5.42898C18.6453 4.49622 17.5438 3.75628 16.3302 3.25198C15.1167 2.74768 13.8152 2.48902 12.501 2.49098C11.1865 2.48876 9.88462 2.74728 8.67071 3.25159C7.4568 3.7559 6.35497 4.49598 5.429 5.42898C1.53 9.32698 1.53 15.672 5.429 19.571C6.35509 20.5041 7.45708 21.2442 8.67117 21.7486C9.88526 22.2529 11.1873 22.5113 12.502 22.509C13.8161 22.5111 15.1176 22.2526 16.3311 21.7484C17.5446 21.2443 18.6462 20.5046 19.572 19.572C23.471 15.674 23.471 9.32898 19.571 5.42898ZM12.681 4.49998H12.322C12.383 4.49898 12.441 4.49098 12.502 4.49098C12.563 4.49098 12.62 4.49898 12.681 4.49998ZM18.743 17.5H16.5L15.242 20.016C14.3642 20.3393 13.4365 20.5062 12.501 20.509C11.5638 20.5064 10.6343 20.3392 9.755 20.015L8.5 17.51H6.265C5.44044 16.4849 4.88281 15.2713 4.642 13.978L6.5 11.5L5.284 9.06698C5.67311 8.24221 6.20037 7.49004 6.843 6.84298C7.74393 5.93922 8.84799 5.2641 10.063 4.87398L12.5 6.49998L14.938 4.87498C16.1529 5.26481 17.257 5.93959 18.158 6.84298C18.8 7.48921 19.3269 8.24035 19.716 9.06398L18.5 11.5L20.358 13.978C20.1184 15.2672 19.5636 16.4771 18.743 17.5Z" fill="#FBFCFC"/>
<path d="M9 11.5L10.5 15.5H14.5L16 11.5L12.5 9L9 11.5Z" fill="#FBFCFC"/>
</svg>
