<svg width="25" height="25" viewBox="0 0 25 25" fill="none" xmlns="http://www.w3.org/2000/svg">
<g clip-path="url(#clip0_287_58)">
<path d="M11.12 0.5H13.85V0.56L14.21 0.59L15.47 0.83L15.92 0.95L16.76 1.25L17.48 1.55L17.96 1.79L18.47 2.06L19.01 2.39L19.49 2.72L20 3.11L20.42 3.47L20.72 3.74L20.9 3.89V3.95H20.96V4.01H21.02V4.07H21.08V4.13H21.14L21.35 4.37L21.68 4.73L22.01 5.15L22.46 5.75L22.76 6.2L23.03 6.71L23.33 7.28L23.66 8L23.9 8.66L24.14 9.44L24.35 10.46L24.44 11.03L24.5 11.06V13.85L24.44 13.94L24.32 14.66L24.14 15.5L23.93 16.22L23.72 16.82L23.45 17.45L23.18 18.02L22.79 18.71L22.31 19.43L21.77 20.15L21.5 20.45L21.14 20.84L20.6 21.38L20.27 21.65L19.88 21.98L19.31 22.4L18.65 22.82L18.11 23.12L17.39 23.48L16.55 23.81L15.92 24.02L15.02 24.26L13.58 24.5H11.09L11.06 24.44L10.01 24.26L9.05 24.02L8.09 23.69L7.34 23.36L6.53 22.94L6.02 22.64L5.51 22.28L4.97 21.86L4.58 21.53L4.28 21.26L3.56 20.54L3.29 20.21L2.96 19.82L2.6 19.31L2.3 18.86L2 18.35L1.64 17.66L1.31 16.91L1.04 16.16L0.8 15.32L0.65 14.57L0.53 13.73L0.5 13.7V11.33L0.68 10.28L0.86 9.44L1.13 8.57L1.43 7.79L1.76 7.07L2.12 6.41L2.57 5.69L2.87 5.3L3.2 4.88L3.56 4.46L3.68 4.31H3.74L3.8 4.19L4.34 3.65L4.58 3.44L5 3.08L5.48 2.72L6.02 2.36L6.62 2L7.31 1.64L7.97 1.34L8.81 1.04L9.53 0.83L10.37 0.65L11.12 0.53V0.5ZM11.84 1.34L10.91 1.43L10.07 1.58L9.47 1.73L8.48 2.06L7.7 2.39L6.95 2.78L6.83 2.9L8.27 2.87L9.56 2.81L9.83 2.72L10.55 2.3L12.02 1.46L12.17 1.34H11.84ZM13.76 1.43L13.28 1.67L12.77 1.97L11.99 2.42L11.36 2.78L10.49 3.29L10.34 3.38L10.4 3.53L10.76 4.22L11.15 4.91L11.24 4.97L14.9 5.63L15.38 5.69L15.71 5.45L16.49 4.85L16.85 4.58L16.94 4.52L16.91 4.37L15.95 2.69L15.56 2L15.35 1.7L14.9 1.58L14.06 1.43H13.76ZM16.58 2.12L16.82 2.54L17.18 3.2L17.36 3.5L17.72 4.13L17.9 4.28L19.67 4.88L20.9 5.3L21.05 5.33L20.87 5.12L20.54 4.76L19.88 4.1L19.04 3.44L18.41 3.02L17.84 2.69L17.33 2.42L16.64 2.12H16.58ZM8.9 3.68L6.02 3.77L5.51 3.8L5.33 3.92L5.03 4.19L4.79 4.4L4.31 4.88V4.94H4.25L4.04 5.18L3.77 5.51L3.47 5.9L3.41 6.08L3.83 7.28L4.37 8.9L4.49 8.93L5.42 8.78L7.37 8.48L7.64 8.39L8 8L8.21 7.76L8.24 7.67H8.3L8.51 7.43L8.66 7.25V7.19H8.72L8.99 6.86L9.41 6.41L9.68 6.08L10.04 5.69L10.25 5.45L10.37 5.3L10.31 5.12L9.77 4.1L9.53 3.68H8.9ZM17.6 5.06L17.18 5.36L16.73 5.72L16.25 6.08L15.98 6.29L16.01 6.5L16.34 7.79L16.73 9.26L17.03 10.4L17.15 10.52L20.21 11.96L20.33 11.9L20.63 11.66L21.14 11.24L21.53 10.91L21.83 10.67L22.25 10.31L22.55 10.07L22.94 9.74L23.21 9.53L23.24 9.41L22.97 8.6L22.67 7.88L22.34 7.19L21.98 6.59L21.89 6.5L20.21 5.93L18.86 5.48L17.63 5.06H17.6ZM11.03 5.81L10.67 6.2L10.4 6.53L10.04 6.92V6.98H9.98L9.71 7.31L9.5 7.52L9.23 7.85L8.87 8.24L8.66 8.48V8.54H8.6L8.39 8.78V8.84H8.33L8.3 9.05L9.02 11.42L9.35 12.53L9.41 12.65L13.61 13.43H13.79L14.06 13.1L14.39 12.74L14.69 12.41V12.35H14.75L14.9 12.17V12.11H14.96L15.17 11.87L15.44 11.57V11.51H15.5L15.71 11.27L15.98 10.97L16.19 10.73L16.22 10.7L16.19 10.43L15.56 8.03L15.26 6.89L15.17 6.56L15.11 6.5L12.11 5.96L11.24 5.81H11.03ZM2.81 6.95L2.63 7.25L2.39 7.73L2.06 8.48L1.76 9.38L1.58 10.1L1.46 10.7L1.34 11.75V13.19L1.43 14.12L1.49 14.18L2.21 13.76L2.81 13.4L2.87 13.34L3.17 11.9L3.65 9.59V9.38L3.47 8.78L3.11 7.76L2.9 7.1L2.84 6.95H2.81ZM7.31 9.32L4.94 9.68L4.52 9.74L4.46 9.77L4.1 11.45L3.77 13.07L3.71 13.34L3.74 13.49L4.31 13.91L4.88 14.3L5.27 14.6L5.84 14.99L6.29 15.32L6.38 15.29L6.59 15.05L6.95 14.66L7.16 14.45V14.39H7.22L7.43 14.15L7.61 13.97V13.91L7.7 13.88L7.91 13.64L7.94 13.55H8L8.21 13.31L8.54 12.98L8.57 12.8L7.97 10.82L7.55 9.38L7.52 9.32H7.31ZM23.45 10.43L23.06 10.73L22.67 11.06L22.37 11.3L21.98 11.63L21.68 11.87L21.29 12.2L20.87 12.53L20.72 12.71L20.63 13.22L20.39 14.87L20.12 16.76V17L20.36 17.42L20.69 17.93L21.14 18.65L21.35 18.98L21.44 19.13L21.59 18.98L22.01 18.35L22.37 17.72L22.7 17.06L23.03 16.22L23.3 15.35L23.45 14.69L23.57 13.94L23.63 13.4L23.66 12.83V12.14L23.6 11.3L23.51 10.55L23.45 10.43ZM16.76 11.3L16.49 11.63L16.07 12.08L15.86 12.32L15.53 12.68L15.38 12.86V12.92H15.32L15.11 13.16L14.78 13.52L14.57 13.76L14.51 13.88H14.45L14.42 13.94V14.12L14.87 15.26L15.44 16.73L15.68 17.36L15.83 17.39L18.17 16.94L19.22 16.73L19.31 16.64L19.85 12.86V12.71L19.37 12.47L18.56 12.08L17.78 11.72L16.88 11.3H16.76ZM9.2 13.46L9.02 13.64V13.7H8.96L8.75 13.94L8.33 14.39L8.3 14.48H8.24V14.54H8.18L7.97 14.78L7.79 14.96V15.02H7.73L7.52 15.26L7.34 15.44V15.5H7.28L7.07 15.74L6.89 15.92L6.92 16.1L7.31 17L7.85 18.23L8.24 19.13L8.48 19.67L8.54 19.79L8.93 19.91L10.85 20.36L12.23 20.69L12.47 20.75H12.62L12.95 20.33L13.22 20L13.55 19.58L14.33 18.62L14.66 18.2L14.93 17.87L14.9 17.63L14.42 16.37L14.09 15.53L13.64 14.36L13.52 14.24L11.39 13.85L9.77 13.55L9.2 13.46ZM3.17 14.15L2.39 14.6L1.64 15.05L1.7 15.38L1.97 16.25L2.27 17L2.6 17.69L2.96 18.32L3.38 18.95L3.74 19.43L4.1 19.85L4.31 20.09L5.09 20.87L5.42 21.14L5.93 21.53L6.05 21.62L6.2 21.59L6.38 21.44L6.53 21.26L6.77 21.05L7.73 20.09L7.64 19.82L7.34 19.13L6.8 17.9L6.5 17.21L6.08 16.25L5.93 16.07L5.42 15.71L4.88 15.32L4.37 14.96L3.83 14.57L3.41 14.27L3.23 14.15H3.17ZM19.37 17.54L15.8 18.23L15.65 18.29L15.26 18.77L15.14 18.92V18.98H15.08L14.81 19.34L14.45 19.76L14.24 20.03L13.88 20.48L13.55 20.9L13.31 21.2L13.4 21.35L13.73 21.71L14 22.04L14.39 22.46L14.66 22.79L15.02 23.18L15.14 23.33L15.44 23.27L16.04 23.09L16.82 22.79L17.6 22.43L18.14 22.13L18.71 21.77L19.13 21.47L19.55 21.14L19.97 20.78L20.33 20.45L20.78 20L20.87 19.88L20.84 19.73L20.51 19.19L20.15 18.62L19.94 18.29L19.49 17.57L19.37 17.54ZM8.36 20.63L7.52 21.47L7.34 21.62V21.68H7.28V21.74H7.22V21.8L7.1 21.86V21.92L6.98 21.98L6.86 22.13L7.28 22.37L7.76 22.61L8.36 22.88L9.11 23.15L9.74 23.33L10.61 23.51L11.57 23.63L12.14 23.66H12.86L13.7 23.6L14.15 23.54V23.45L13.79 23.06L13.52 22.73L13.16 22.34L12.95 22.1L12.62 21.71L12.44 21.59L11.21 21.29L8.66 20.69L8.36 20.63Z" fill="#FBFCFC"/>
</g>
<defs>
<clipPath id="clip0_287_58">
<rect width="24" height="24" fill="white" transform="translate(0.5 0.5)"/>
</clipPath>
</defs>
</svg>
