<svg width="400" height="227" viewBox="0 0 400 227" fill="none" xmlns="http://www.w3.org/2000/svg">
<g id="spots logo 1" clip-path="url(#clip0_44_545)">
<g id="Group">
<path id="Vector" opacity="0.978" fill-rule="evenodd" clip-rule="evenodd" d="M130.77 -0.200562C134.649 -0.200562 138.524 -0.200562 142.403 -0.200562C153.318 1.44131 161.072 7.25657 165.669 17.2452C160.005 20.4106 154.12 23.2848 148.019 25.8678C143.53 18.595 137.381 16.7903 129.567 20.4536C127.334 21.772 125.93 23.7104 125.355 26.2689C125.087 36.8299 125.087 47.3911 125.355 57.952C126.395 61.7845 128.868 64.1242 132.776 64.9705C138.396 66.3886 143.278 65.1184 147.417 61.1605C148.661 58.9226 149.262 56.5163 149.222 53.9415C144.81 53.9415 140.397 53.9415 135.985 53.9415C135.985 47.7922 135.985 41.6424 135.985 35.4931C147.217 35.4931 158.448 35.4931 169.68 35.4931C169.845 44.4626 169.644 53.4197 169.079 62.3636C166.395 73.4679 159.511 80.4864 148.42 83.4189C137.377 86.2595 126.812 85.0564 116.73 79.8094C109.647 75.3946 105.435 69.0443 104.095 60.7594C103.711 47.511 103.845 34.2763 104.496 21.0552C107.097 12.037 112.78 5.82072 121.544 2.40628C124.618 1.33883 127.693 0.469882 130.77 -0.200562Z" fill="#FBFCFC"/>
</g>
<g id="Group_2">
<path id="Vector_2" opacity="0.986" fill-rule="evenodd" clip-rule="evenodd" d="M0 0.601598C11.6337 0.534767 23.2667 0.601606 34.8988 0.802124C44.3078 1.19529 52.13 4.8716 58.3652 11.8311C60.9108 15.4538 62.5154 19.4643 63.1789 23.8626C63.4464 36.2953 63.4464 48.7279 63.1789 61.1605C61.1989 72.0984 54.8473 79.1168 44.1249 82.2158C41.3655 83.0082 38.5576 83.5428 35.7011 83.82C23.8014 84.0205 11.9013 84.0875 0 84.0205C0 56.2143 0 28.4079 0 0.601598ZM21.2602 20.6542C25.5411 20.5874 29.82 20.6543 34.0965 20.8547C38.2443 21.5281 40.8517 23.8676 41.9187 27.8732C42.1862 37.6321 42.1862 47.3912 41.9187 57.15C40.6495 61.0847 37.9085 63.2905 33.6954 63.7673C29.5525 63.9679 25.4075 64.0344 21.2602 63.9679C21.2602 49.53 21.2602 35.0921 21.2602 20.6542Z" fill="#FBFCFC"/>
</g>
<g id="Group_3">
<path id="Vector_3" opacity="0.983" fill-rule="evenodd" clip-rule="evenodd" d="M73.0067 0.601562C80.0936 0.601562 87.18 0.601562 94.2669 0.601562C94.2669 28.4079 94.2669 56.2143 94.2669 84.0205C87.18 84.0205 80.0936 84.0205 73.0067 84.0205C73.0067 56.2143 73.0067 28.4079 73.0067 0.601562Z" fill="#FBFCFC"/>
</g>
<g id="Group_4">
<path id="Vector_4" opacity="0.978" fill-rule="evenodd" clip-rule="evenodd" d="M154.561 226.795C147.473 226.795 140.389 226.795 133.301 226.795C133.301 183.615 133.301 140.435 133.301 97.2552C140.389 97.2552 147.473 97.2552 154.561 97.2552C154.561 107.683 154.561 118.11 154.561 128.537C162.451 128.537 170.337 128.537 178.228 128.537C178.228 85.8922 178.228 43.2467 178.228 0.601562C185.448 0.601562 192.669 0.601562 199.889 0.601562C199.889 60.6259 199.889 120.65 199.889 180.674C192.669 180.674 185.448 180.674 178.228 180.674C178.228 170.38 178.228 160.087 178.228 149.793C170.337 149.793 162.451 149.793 154.561 149.793C154.561 175.46 154.561 201.128 154.561 226.795Z" fill="#FBFCFC"/>
</g>
<g id="Group_5">
<path id="Vector_5" opacity="0.978" fill-rule="evenodd" clip-rule="evenodd" d="M207 0.601562C229.062 0.601562 251.125 0.601562 273.187 0.601562C273.187 7.41945 273.187 14.2373 273.187 21.0552C265.698 21.0552 258.213 21.0552 250.724 21.0552C250.724 42.0435 250.724 63.0322 250.724 84.0205C243.503 84.0205 236.283 84.0205 229.062 84.0205C229.062 63.0322 229.062 42.0435 229.062 21.0552C221.71 21.0552 214.353 21.0552 207 21.0552C207 14.2373 207 7.41945 207 0.601562Z" fill="#FBFCFC"/>
</g>
<g id="Group_6">
<path id="Vector_6" opacity="0.977" fill-rule="evenodd" clip-rule="evenodd" d="M291.639 0.601562C298.19 0.601562 304.745 0.601562 311.295 0.601562C321.071 28.3792 330.963 56.1189 340.979 83.82C333.225 84.0205 325.471 84.0875 317.713 84.0205C316.057 78.52 314.32 73.0389 312.498 67.5773C305.186 67.0459 297.897 67.0459 290.637 67.5773C289.084 72.9635 287.415 78.3111 285.622 83.6194C278.005 84.0205 270.383 84.154 262.758 84.0205C272.305 56.187 281.932 28.3805 291.639 0.601562ZM300.866 24.6647C301.515 24.6086 301.985 24.8759 302.27 25.4668C303.966 33.0869 305.639 40.7068 307.284 48.3268C303.405 48.3268 299.53 48.3268 295.651 48.3268C297.328 40.4245 299.064 32.5369 300.866 24.6647Z" fill="#FBFCFC"/>
</g>
<g id="Group_7">
<path id="Vector_7" opacity="0.986" fill-rule="evenodd" clip-rule="evenodd" d="M344.589 0.601562C351.677 0.601562 358.761 0.601562 365.85 0.601562C365.85 21.3226 365.85 42.0435 365.85 62.7647C377.081 62.7647 388.313 62.7647 399.545 62.7647C399.545 69.8501 399.545 76.9351 399.545 84.0205C381.225 84.0205 362.909 84.0205 344.589 84.0205C344.589 56.2143 344.589 28.4079 344.589 0.601562Z" fill="#FBFCFC"/>
</g>
<g id="Group_8">
<path id="Vector_8" opacity="0.978" fill-rule="evenodd" clip-rule="evenodd" d="M285.221 97.2552C297.524 97.1882 309.827 97.2552 322.126 97.4558C337.136 98.8939 345.159 107.115 346.194 122.12C345.897 128.398 343.089 133.144 337.77 136.358C347.975 142.493 351.521 151.383 348.4 163.028C344.734 173.769 337.176 179.584 325.736 180.474C312.23 180.674 298.728 180.741 285.221 180.674C285.221 152.868 285.221 125.061 285.221 97.2552ZM306.883 115.303C311.853 115.145 316.799 115.345 321.725 115.904C326.586 118.708 327.589 122.518 324.733 127.334C323.766 128.319 322.631 129.054 321.324 129.54C316.51 129.74 311.696 129.807 306.883 129.74C306.883 124.928 306.883 120.115 306.883 115.303ZM306.883 145.382C311.432 145.315 315.976 145.382 320.521 145.582C327.268 147.507 329.338 151.718 326.739 158.215C325.7 159.523 324.428 160.526 322.928 161.223C317.609 161.802 312.262 162.003 306.883 161.825C306.883 156.343 306.883 150.863 306.883 145.382Z" fill="#FBFCFC"/>
</g>
<g id="Group_9">
<path id="Vector_9" opacity="0.979" fill-rule="evenodd" clip-rule="evenodd" d="M209.808 97.6562C217.028 97.6562 224.249 97.6562 231.469 97.6562C231.401 116.64 231.469 135.623 231.67 154.606C233.511 159.979 237.322 162.653 243.102 162.627C246.712 162.591 249.853 161.388 252.529 159.017C253.407 157.792 254.077 156.455 254.535 155.007C254.735 135.89 254.803 116.774 254.735 97.6562C261.956 97.6562 269.176 97.6562 276.396 97.6562C276.465 117.576 276.396 137.494 276.196 157.413C273.605 169.763 266.184 177.584 253.933 180.875C241.405 184.001 229.905 181.862 219.435 174.458C213.803 169.681 210.662 163.598 210.009 156.21C209.808 136.692 209.74 117.175 209.808 97.6562Z" fill="#FBFCFC"/>
</g>
</g>
<defs>
<clipPath id="clip0_44_545">
<rect width="400" height="226.996" fill="white"/>
</clipPath>
</defs>
</svg>
