<svg width="25" height="25" viewBox="0 0 25 25" fill="none" xmlns="http://www.w3.org/2000/svg">
<path d="M19.055 15.005C19.1889 14.8578 19.2589 14.6634 19.2495 14.4646C19.2402 14.2659 19.1522 14.0789 19.005 13.945C18.8578 13.8111 18.6634 13.7411 18.4646 13.7505C18.2659 13.7598 18.0789 13.8478 17.945 13.995L19.055 15.005ZM21.743 11.243L22.277 10.717L22.273 10.712L21.743 11.243ZM21.953 12.526C22.0221 12.5963 22.1043 12.6522 22.195 12.6907C22.2857 12.7292 22.3831 12.7494 22.4816 12.7502C22.5802 12.7511 22.6779 12.7325 22.7692 12.6956C22.8606 12.6586 22.9437 12.6041 23.014 12.535C23.0843 12.4659 23.1402 12.3837 23.1787 12.293C23.2172 12.2023 23.2374 12.1049 23.2382 12.0064C23.2391 11.9078 23.2205 11.8101 23.1836 11.7188C23.1466 11.6274 23.0921 11.5443 23.023 11.474L21.953 12.526ZM6.233 19.543C6.03409 19.543 5.84332 19.622 5.70267 19.7627C5.56202 19.9033 5.483 20.0941 5.483 20.293C5.483 20.4919 5.56202 20.6827 5.70267 20.8233C5.84332 20.964 6.03409 21.043 6.233 21.043V19.543ZM4 16.25C3.80109 16.25 3.61032 16.329 3.46967 16.4697C3.32902 16.6103 3.25 16.8011 3.25 17C3.25 17.1989 3.32902 17.3897 3.46967 17.5303C3.61032 17.671 3.80109 17.75 4 17.75V16.25ZM8.692 3.856C8.76234 3.67367 8.75874 3.47108 8.68195 3.29136C8.60516 3.11164 8.46126 2.969 8.28087 2.8938C8.10049 2.81859 7.89787 2.81677 7.71617 2.88872C7.53446 2.96066 7.38801 3.1007 7.308 3.279L8.692 3.856ZM7.308 15.789C7.38653 15.9697 7.53304 16.1123 7.71584 16.1859C7.89865 16.2594 8.10306 16.2581 8.2849 16.1822C8.46673 16.1062 8.61137 15.9618 8.68755 15.7801C8.76373 15.5983 8.76533 15.3939 8.692 15.211L7.308 15.789ZM11.5 6.25C11.3011 6.25 11.1103 6.32902 10.9697 6.46967C10.829 6.61032 10.75 6.80109 10.75 7C10.75 7.19891 10.829 7.38968 10.9697 7.53033C11.1103 7.67098 11.3011 7.75 11.5 7.75V6.25ZM20.376 17.416C20.4301 17.4991 20.5002 17.5707 20.5821 17.6266C20.6641 17.6824 20.7563 17.7215 20.8534 17.7415C20.9506 17.7615 21.0507 17.762 21.1481 17.743C21.2455 17.724 21.3381 17.6859 21.4206 17.6309C21.5031 17.5759 21.5739 17.505 21.6289 17.4225C21.6838 17.3399 21.7219 17.2473 21.7408 17.1499C21.7597 17.0525 21.7591 16.9524 21.7391 16.8553C21.719 16.7581 21.6799 16.6659 21.624 16.584L20.376 17.416ZM12.5 21.75C10.0467 21.75 7.69397 20.7754 5.95926 19.0407C4.22455 17.306 3.25 14.9533 3.25 12.5H1.75C1.75 18.437 6.563 23.25 12.5 23.25V21.75ZM21.75 12.5C21.75 14.9533 20.7754 17.306 19.0407 19.0407C17.306 20.7754 14.9533 21.75 12.5 21.75V23.25C18.437 23.25 23.25 18.437 23.25 12.5H21.75ZM12.5 3.25C14.9533 3.25 17.306 4.22455 19.0407 5.95926C20.7754 7.69397 21.75 10.0467 21.75 12.5H23.25C23.25 6.563 18.437 1.75 12.5 1.75V3.25ZM12.5 1.75C6.563 1.75 1.75 6.563 1.75 12.5H3.25C3.25 10.0467 4.22455 7.69397 5.95926 5.95926C7.69397 4.22455 10.0467 3.25 12.5 3.25V1.75ZM12.5 13.25H12.592V11.75H12.5V13.25ZM11.908 12.04L11.478 12.593L12.662 13.513L13.092 12.96L11.908 12.04ZM11.808 2.212L11.122 3.857L12.507 4.434L13.192 2.788L11.808 2.212ZM17.945 13.996L17.654 14.316L18.764 15.325L19.055 15.005L17.945 13.996ZM21.208 11.769L21.953 12.526L23.023 11.474L22.277 10.717L21.208 11.769ZM17.654 14.316C14.784 17.473 10.461 19.543 6.233 19.543V21.043C10.921 21.043 15.637 18.766 18.764 15.325L17.654 14.316ZM11.122 3.857C10.5147 5.31356 10.2652 6.89439 10.3943 8.46718C10.5234 10.04 11.0274 11.559 11.864 12.897L13.136 12.102C12.4262 10.9671 11.9986 9.67867 11.889 8.34457C11.7794 7.01048 11.9909 5.66954 12.506 4.434L11.122 3.857ZM11.478 12.593C10.5924 13.7319 9.45837 14.6534 8.16236 15.2872C6.86636 15.921 5.44268 16.2503 4 16.25V17.75C7.386 17.75 10.583 16.187 12.662 13.514L11.478 12.593ZM7.308 3.279C6.47767 5.25984 6.05004 7.38617 6.05004 9.534C6.05004 11.6818 6.47767 13.8082 7.308 15.789L8.692 15.211C7.938 13.4131 7.54967 11.4831 7.54967 9.5335C7.54967 7.58392 7.938 5.65387 8.692 3.856L7.308 3.279ZM11.5 7.75C15.143 7.75 18.636 9.197 21.212 11.773L22.273 10.713C19.4156 7.85601 15.5407 6.25069 11.5 6.25V7.75ZM12.592 13.25C14.1321 13.2504 15.6482 13.6309 17.006 14.3576C18.3639 15.0843 19.5214 16.1348 20.376 17.416L21.624 16.584C20.6324 15.0973 19.2893 13.8783 17.7138 13.0351C16.1383 12.1919 14.379 11.7505 12.592 11.75V13.25Z" fill="#FBFCFC"/>
</svg>
